<?xml version="1.0" encoding="UTF-8"?><svg id="_лой_2" xmlns="http://www.w3.org/2000/svg" viewBox="0 0 1874.72 469.39"><defs><style>.cls-1{letter-spacing:.03em;}.cls-2,.cls-3{fill:#f26419;}.cls-4{letter-spacing:0em;}.cls-5{letter-spacing:.03em;}.cls-6{letter-spacing:.02em;}.cls-7{letter-spacing:.02em;}.cls-3{font-family:Montserrat-Bold, Montserrat;font-size:209.86px;}.cls-8{fill:#2f4858;}.cls-9{letter-spacing:.02em;}.cls-10{fill:#fff;font-family:Montserrat-SemiBold, Montserrat;font-size:115px;}.cls-11{letter-spacing:.02em;}.cls-12{letter-spacing:.02em;}</style></defs><g id="_етка"><path class="cls-8" d="M95.48,41.27c-7,1.12-14.14,7.61-15.89,14.3C56.06,146.32,29.69,228.45,.49,299.94c-2.18,5.26,3.18,11.86,11.94,14.83,123.11,41.17,249.96,92.02,380.52,152.98,9.3,4.37,17.22-.2,17.57-10.27,4.88-135.45,6.92-275.86,6.13-419.2-.07-10.64-6.33-19.42-13.87-19.43-106.16-.56-208.6,7.06-307.31,22.43Zm92.17,257.39c-1.27,7.6-9.43,11.54-18.08,8.89-22.51-6.85-44.89-13.37-67.15-19.57-8.55-2.41-14.07-9.52-12.32-15.93,4.29-15.89,8.49-32.09,12.59-48.59,1.68-6.65,9.63-11.15,17.71-9.86,21.12,3.43,42.38,7.17,63.75,11.22,8.19,1.52,13.94,9.24,12.74,17.05-2.99,19.18-6.08,38.11-9.25,56.78Zm19.92-129.05c-1.1,8.04-8.59,13.66-16.58,12.59-20.81-2.7-41.5-5.11-62.06-7.21-7.9-.84-13.03-7.1-11.45-14.04,3.87-17.2,7.64-34.68,11.32-52.42,1.5-7.16,8.78-13.28,16.22-13.48,19.43-.44,38.98-.61,58.67-.49,7.53,.02,12.9,6.85,11.87,15.07-2.57,20.22-5.23,40.22-7.99,59.98Zm129.5,176.79c-.6,9.33-8.38,14.24-17.24,11.03-23.07-8.29-46.02-16.25-68.84-23.88-8.76-2.96-15.02-11.92-13.94-20.02,2.62-20.08,5.15-40.4,7.59-60.94,1-8.29,8.58-13.69,16.88-11.88,21.69,4.79,43.5,9.9,65.44,15.32,8.4,2.04,14.89,11.56,14.36,21.03-1.32,23.29-2.74,46.41-4.26,69.35Zm8.73-156.56c-.43,9.64-7.54,16.15-15.75,14.57-21.38-4.04-42.63-7.77-63.75-11.2-8.12-1.35-13.97-9.32-13.07-17.83,2.2-21.07,4.31-42.35,6.32-63.82,.83-8.67,7.73-15.62,15.38-15.34,19.99,.81,40.11,1.9,60.35,3.29,7.75,.5,13.84,8.97,13.49,18.74-.9,24.02-1.9,47.88-2.99,71.59Z"/><text class="cls-3" transform="translate(434.72 193.54) scale(.8 1)"><tspan class="cls-12" x="0" y="0">A</tspan><tspan class="cls-1" x="166" y="0">n</tspan><tspan class="cls-12" x="317.51" y="0">d</tspan><tspan class="cls-11" x="467.98" y="0">r</tspan><tspan class="cls-6" x="561.79" y="0">ogen-No</tspan><tspan class="cls-7" x="1548.34" y="0">r</tspan><tspan class="cls-12" x="1642.15" y="0">d</tspan></text><g><rect class="cls-2" x="434.72" y="249.62" width="1440" height="200"/><text class="cls-10" transform="translate(464.16 389.87) scale(1.13 1)"><tspan class="cls-5" x="0" y="0">Пла</tspan><tspan class="cls-9" x="246.21" y="0">с</tspan><tspan class="cls-5" x="315.33" y="0">ти</tspan><tspan class="cls-4" x="460.91" y="0">к</tspan><tspan class="cls-5" x="532.79" y="0">овые Окна</tspan></text></g></g></svg>